# xmcd
#
# Track frame offsets:
#	150
#	15567
#	29121
#	42754
#	56543
#	71772
#	87027
#	100689
#	112092
#	125117
#	139190
#	153863
#	168040
#	181800
#	192562
#	206798
#	221320
#	235981
#	249594
#	264069
#	275166
#	287715
#	301540
#	314179
#	325835
#	338850
#
# Disc length: 4704 seconds
#
# Revision: 0
# Processed by: cddbd v1.5.1PL2 Copyright (c) Steve Scherf et al.
# Submitted via: dBpowerAMP V4.0
#
DISCID=7e125e1a
DTITLE=Various Artist - Blues, Jazz or the Birth of Rock'n'Roll Vol 1 and 2 (1927-1938)
DYEAR=1900
DGENRE=Blues
TTITLE0=memphis jug band - sun brimmer's blues
TTITLE1=allen brothers - ain't that skippin' and flyin'
TTITLE2=blind lemon jefferson - matchbox
TTITLE3=garyson and whitter - train 45
TTITLE4=honolulu serenadeers - honolulu stomp
TTITLE5=mississippi john hurt -  - frankie (and johnnie)
TTITLE6=lonnie johnson - playing with the strings
TTITLE7=jelly roll morton - georgia swing
TTITLE8=henry thomas - old country stomp
TTITLE9=eddie lang and lonnie johnson - a handful of riffs
TTITLE10=barbecue bob - twistin' your stuff (unissued)
TTITLE11=grayson and whitter - tom dooley
TTITLE12=sleepy john estes - milk cow blues
TTITLE13=jimmie noone - you rascal you
TTITLE14=joe mccoy and memphis minnie - let's go to town
TTITLE15=fort worth doughboys - nancy jane
TTITLE16=new orleans feetwarmers - i've found a new baby
TTITLE17=milton brown and his musical brownies - talking about you
TTITLE18=Various Artist - komoko arnold - the twelves
TTITLE19=cleo brown - boogie woogie
TTITLE20=boswell sisters - rock and roll
TTITLE21=bumble bee slim - i'm needing someone
TTITLE22=milton brown and his musical brownies - mama don't allow it
TTITLE23=milton brown and his musical brownies - keep a knockin'
TTITLE24=louis armstrong - swing that music
TTITLE25=hartman's heartbreakers - it feels so good
EXTD=
EXTT0=
EXTT1=
EXTT2=
EXTT3=
EXTT4=
EXTT5=
EXTT6=
EXTT7=
EXTT8=
EXTT9=
EXTT10=
EXTT11=
EXTT12=
EXTT13=
EXTT14=
EXTT15=
EXTT16=
EXTT17=
EXTT18=
EXTT19=
EXTT20=
EXTT21=
EXTT22=
EXTT23=
EXTT24=
EXTT25=
PLAYORDER=
